<svg width="61" height="60" viewBox="0 0 61 60" fill="none" xmlns="http://www.w3.org/2000/svg">
<path d="M5.0431 52H29.25C29.807 52 30.2586 51.5523 30.2586 51C30.2586 50.4477 29.807 50 29.25 50H5.0431C3.37197 50 2.01724 48.6569 2.01724 47V27H34.636C35.1931 27 35.6447 26.5523 35.6447 26C35.6447 25.4477 35.1931 25 34.636 25H2.01724V5C2.01724 3.34315 3.37197 2 5.0431 2H36.3103C37.9815 2 39.3362 3.34315 39.3362 5V19C39.3362 19.5523 39.7878 20 40.3448 20C40.9019 20 41.3535 19.5523 41.3535 19V5C41.3501 2.23995 39.0942 0.00330612 36.3103 0H5.0431C2.25926 0.00330612 0.00333462 2.23995 0 5V47C0.00333462 49.7601 2.25926 51.9967 5.0431 52Z" fill="white"/>
<path d="M8.06897 29C5.84078 29 4.03448 30.7909 4.03448 33V44C4.03448 46.2091 5.84078 48 8.06897 48H19.1638C21.392 48 23.1983 46.2091 23.1983 44V33C23.1983 30.7909 21.392 29 19.1638 29H8.06897ZM11.0948 37.5C11.0948 36.1193 12.2238 35 13.6164 35C15.009 35 16.1379 36.1193 16.1379 37.5C16.1379 38.8807 15.009 40 13.6164 40C12.2238 40 11.0948 38.8807 11.0948 37.5ZM8.28784 46C8.9606 43.6345 11.1374 42.0006 13.6164 42.0006C16.0954 42.0006 18.2722 43.6345 18.9449 46H8.28784ZM21.181 33V44C21.1801 44.4176 21.0464 44.8242 20.7988 45.162C20.153 43.1873 18.7047 41.5698 16.8036 40.7C18.1147 39.4179 18.5145 37.4776 17.8156 35.7884C17.1168 34.0993 15.4578 32.9962 13.6164 32.9962C11.7749 32.9962 10.116 34.0993 9.41713 35.7884C8.7183 37.4776 9.1181 39.4179 10.4291 40.7C8.52761 41.5702 7.07926 43.1886 6.43399 45.164C6.18601 44.8256 6.05221 44.4182 6.05173 44V33C6.05173 31.8954 6.95488 31 8.06897 31H19.1638C20.2779 31 21.181 31.8954 21.181 33Z" fill="white"/>
<path d="M58.5 54.184V38C58.5 35.7909 56.6937 34 54.4655 34H50.1517L52.8407 29.334C53.3005 28.541 53.3678 27.5826 53.0232 26.734L51.8754 23.888C51.4195 22.7456 50.3045 21.9965 49.0654 22H41.7105C40.4719 21.9962 39.3571 22.7444 38.9005 23.886L37.7527 26.732C37.4081 27.5806 37.4754 28.539 37.9353 29.332L40.6242 34H36.3104C34.0822 34 32.2759 35.7909 32.2759 38V54.184C30.8875 54.6689 30.0542 56.0759 30.3036 57.5142C30.5531 58.9525 31.8125 60.0028 33.2845 60H57.4914C58.9634 60.0028 60.2228 58.9525 60.4723 57.5142C60.7217 56.0759 59.8884 54.6689 58.5 54.184ZM41.7105 24H49.0654C49.4783 23.9986 49.8498 24.2483 50.0014 24.629L50.9586 27H39.8173L40.7745 24.629C40.9261 24.2483 41.2977 23.9986 41.7105 24ZM40.0655 29H50.7104L47.8288 34H42.9471L40.0655 29ZM34.2931 38C34.2931 36.8954 35.1963 36 36.3104 36H54.4655C55.5796 36 56.4828 36.8954 56.4828 38V54H54.4655V39C54.4655 38.4477 54.014 38 53.4569 38H37.319C36.7619 38 36.3104 38.4477 36.3104 39V54H34.2931V38ZM38.3276 54V52H52.4483V54H38.3276ZM52.4483 40V45H48.4138V40H52.4483ZM43.3707 47H52.4483V50H38.3276V47H43.3707ZM46.3966 45H44.3793V40H46.3966V45ZM42.3621 45H38.3276V40H42.3621V45ZM57.4914 58H33.2845C32.7275 58 32.2759 57.5523 32.2759 57C32.2759 56.4477 32.7275 56 33.2845 56H57.4914C58.0485 56 58.5 56.4477 58.5 57C58.5 57.5523 58.0485 58 57.4914 58Z" fill="white"/>
<path d="M35.3017 5H23.1983C22.6412 5 22.1896 5.44772 22.1896 6C22.1896 6.55229 22.6412 7 23.1983 7H35.3017C35.8588 7 36.3103 6.55229 36.3103 6C36.3103 5.44772 35.8588 5 35.3017 5Z" fill="white"/>
<path d="M35.3017 10H23.1983C22.6412 10 22.1896 10.4477 22.1896 11C22.1896 11.5523 22.6412 12 23.1983 12H35.3017C35.8588 12 36.3103 11.5523 36.3103 11C36.3103 10.4477 35.8588 10 35.3017 10Z" fill="white"/>
<path d="M36.3103 16C36.3103 15.4477 35.8588 15 35.3017 15H23.1983C22.6412 15 22.1896 15.4477 22.1896 16C22.1896 16.5523 22.6412 17 23.1983 17H35.3017C35.8588 17 36.3103 16.5523 36.3103 16Z" fill="white"/>
<path d="M23.1983 20C22.6412 20 22.1896 20.4477 22.1896 21C22.1896 21.5523 22.6412 22 23.1983 22H29.25C29.807 22 30.2586 21.5523 30.2586 21C30.2586 20.4477 29.807 20 29.25 20H23.1983Z" fill="white"/>
<path d="M18.1552 5H6.05177C5.49473 5 5.04315 5.44772 5.04315 6C5.04315 6.55229 5.49473 7 6.05177 7H18.1552C18.7123 7 19.1638 6.55229 19.1638 6C19.1638 5.44772 18.7123 5 18.1552 5Z" fill="white"/>
<path d="M18.1552 10H6.05177C5.49473 10 5.04315 10.4477 5.04315 11C5.04315 11.5523 5.49473 12 6.05177 12H18.1552C18.7123 12 19.1638 11.5523 19.1638 11C19.1638 10.4477 18.7123 10 18.1552 10Z" fill="white"/>
<path d="M18.1552 20H6.05177C5.49473 20 5.04315 20.4477 5.04315 21C5.04315 21.5523 5.49473 22 6.05177 22H18.1552C18.7123 22 19.1638 21.5523 19.1638 21C19.1638 20.4477 18.7123 20 18.1552 20Z" fill="white"/>
</svg>
