<svg width="31" height="18" viewBox="0 0 31 18" fill="none" xmlns="http://www.w3.org/2000/svg">
<path d="M13.3957 17.7581L12.0797 13.5484H5.46255L4.14658 17.7581H0L6.40609 0H11.1113L17.5422 17.7581H13.3957ZM11.161 10.4032C9.94433 6.58871 9.25738 4.43145 9.10012 3.93145C8.95114 3.43145 8.84355 3.03629 8.77733 2.74597C8.5042 3.77823 7.72207 6.33065 6.43092 10.4032H11.161Z" fill="#005064"/>
<path d="M28.3556 17.7581L27.6231 15.9194H27.5238C26.8865 16.7016 26.2285 17.246 25.5499 17.5524C24.8795 17.8508 24.0021 18 22.9179 18C21.5854 18 20.5342 17.629 19.7645 16.8871C19.0031 16.1452 18.6223 15.0887 18.6223 13.7177C18.6223 12.2823 19.1355 11.2258 20.1618 10.5484C21.1964 9.8629 22.7524 9.48387 24.8298 9.41129L27.2383 9.33871V8.74597C27.2383 7.375 26.5182 6.68952 25.0781 6.68952C23.969 6.68952 22.6655 7.01613 21.1674 7.66935L19.9135 5.17742C21.5109 4.3629 23.2821 3.95565 25.2271 3.95565C27.0893 3.95565 28.517 4.35081 29.5102 5.14113C30.5034 5.93145 31 7.13306 31 8.74597V17.7581H28.3556ZM27.2383 11.4919L25.7733 11.5403C24.6725 11.5726 23.8532 11.7661 23.3152 12.121C22.7772 12.4758 22.5082 13.0161 22.5082 13.7419C22.5082 14.7823 23.1207 15.3024 24.3456 15.3024C25.2229 15.3024 25.9223 15.0565 26.4437 14.5645C26.9734 14.0726 27.2383 13.4194 27.2383 12.6048V11.4919Z" fill="#005064"/>
</svg>
