<svg width="61" height="60" viewBox="0 0 61 60" fill="none" xmlns="http://www.w3.org/2000/svg">
<path d="M57.4914 5H56.4243C56.1126 2.129 54.4806 0 52.4483 0C50.4159 0 48.784 2.129 48.4723 5H45.3294C45.0178 2.129 43.3858 0 41.3534 0C39.3211 0 37.6891 2.129 37.3775 5H34.2346C33.9229 2.129 32.291 0 30.2586 0C28.2262 0 26.5943 2.129 26.2826 5H23.1398C22.8281 2.129 21.1962 0 19.1638 0C17.1314 0 15.4995 2.129 15.1878 5H12.0449C11.7333 2.129 10.1013 0 8.06896 0C6.03659 0 4.40465 2.129 4.09298 5H3.02586C1.35472 5 0 6.34315 0 8V13C0.00529666 14.2668 0.812594 15.3937 2.01724 15.816V57C2.01724 58.6569 3.37197 60 5.0431 60H55.4741C57.1453 60 58.5 58.6569 58.5 57V15.816C59.7046 15.3937 60.5119 14.2668 60.5172 13V8C60.5172 6.34315 59.1625 5 57.4914 5ZM58.5 13C58.5 13.5523 58.0484 14 57.4914 14H17.1466C16.5895 14 16.1379 14.4477 16.1379 15C16.1379 15.5523 16.5895 16 17.1466 16H56.4828V57C56.4828 57.5523 56.0312 58 55.4741 58H5.0431C4.48606 58 4.03448 57.5523 4.03448 57V16H10.0862C10.6433 16 11.0948 15.5523 11.0948 15C11.0948 14.4477 10.6433 14 10.0862 14H3.02586C2.46882 14 2.01724 13.5523 2.01724 13V8C2.01724 7.44772 2.46882 7 3.02586 7H7.06034C7.61739 7 8.06896 6.55228 8.06896 6C8.06896 5.44772 7.61739 5 7.06034 5H6.12939C6.38154 3.233 7.26207 2 8.06896 2C9.0211 2 10.0862 3.71 10.0862 6C10.0862 8.29 9.0211 10 8.06896 10C7.51192 10 7.06034 10.4477 7.06034 11C7.06034 11.5523 7.51192 12 8.06896 12C10.1013 12 11.7333 9.871 12.0449 7H18.1552C18.7122 7 19.1638 6.55228 19.1638 6C19.1638 5.44772 18.7122 5 18.1552 5H17.2242C17.4764 3.233 18.3569 2 19.1638 2C20.1159 2 21.181 3.71 21.181 6C21.181 8.29 20.1159 10 19.1638 10C18.6067 10 18.1552 10.4477 18.1552 11C18.1552 11.5523 18.6067 12 19.1638 12C21.1962 12 22.8281 9.871 23.1398 7H29.25C29.807 7 30.2586 6.55228 30.2586 6C30.2586 5.44772 29.807 5 29.25 5H28.319C28.5712 3.233 29.4517 2 30.2586 2C31.2108 2 32.2759 3.71 32.2759 6C32.2759 8.29 31.2108 10 30.2586 10C29.7016 10 29.25 10.4477 29.25 11C29.25 11.5523 29.7016 12 30.2586 12C32.291 12 33.9229 9.871 34.2346 7H40.3448C40.9019 7 41.3534 6.55228 41.3534 6C41.3534 5.44772 40.9019 5 40.3448 5H39.4139C39.666 3.233 40.5466 2 41.3534 2C42.3056 2 43.3707 3.71 43.3707 6C43.3707 8.29 42.3056 10 41.3534 10C40.7964 10 40.3448 10.4477 40.3448 11C40.3448 11.5523 40.7964 12 41.3534 12C43.3858 12 45.0178 9.871 45.3294 7H51.4397C51.9967 7 52.4483 6.55228 52.4483 6C52.4483 5.44772 51.9967 5 51.4397 5H50.5087C50.7608 3.233 51.6414 2 52.4483 2C53.4004 2 54.4655 3.71 54.4655 6C54.4655 8.29 53.4004 10 52.4483 10C51.8912 10 51.4397 10.4477 51.4397 11C51.4397 11.5523 51.8912 12 52.4483 12C54.4806 12 56.1126 9.871 56.4243 7H57.4914C58.0484 7 58.5 7.44772 58.5 8V13Z" fill="white"/>
<path d="M30.2586 50C33.0455 49.9988 35.7769 49.2284 38.1471 47.775L45.4091 54.975C46.7911 56.3406 49.0269 56.3406 50.4089 54.975C51.7729 53.6017 51.7729 51.3973 50.4089 50.024L43.1468 42.824C46.7297 37.0056 45.8997 29.5228 41.1271 24.6154C36.3546 19.7081 28.8425 18.6132 22.8474 21.9512C16.8523 25.2892 13.8854 32.2187 15.6278 38.8132C17.3703 45.4077 23.3828 50.0049 30.2586 50ZM48.9786 51.434C49.5642 52.0249 49.5642 52.972 48.9786 53.563C48.3769 54.1266 47.4361 54.1266 46.8343 53.563L39.8214 46.609C40.6051 45.9729 41.3231 45.2611 41.9647 44.484L48.9786 51.434ZM30.2586 22C37.5002 22 43.3707 27.8203 43.3707 35C43.3707 42.1797 37.5002 48 30.2586 48C23.017 48 17.1466 42.1797 17.1466 35C17.1549 27.8237 23.0205 22.0083 30.2586 22Z" fill="white"/>
<path d="M29.4447 44.792C29.9529 45.0699 30.5694 45.0699 31.0776 44.792C38.0885 40.907 41.3534 37.26 41.3534 33.313C41.4113 31.6758 40.8026 30.0843 39.6643 28.8969C38.526 27.7094 36.9538 27.0258 35.3017 27C33.432 26.9927 31.6293 27.6901 30.2586 28.951C28.888 27.6901 27.0853 26.9927 25.2155 27C23.5634 27.0258 21.9912 27.7094 20.8529 28.8969C19.7146 30.0843 19.1059 31.6758 19.1638 33.313C19.1638 37.26 22.4327 40.906 29.4447 44.792ZM25.2155 29C26.8563 28.9885 28.4111 29.7261 29.4315 31C29.6296 31.2541 29.9352 31.4028 30.2591 31.4028C30.583 31.4028 30.8886 31.2541 31.0867 31C32.1071 29.7266 33.6614 28.9891 35.3017 29C36.4217 29.018 37.4857 29.4886 38.2474 30.3028C39.0091 31.1171 39.4024 32.2044 39.3362 33.313C39.3362 36.388 36.3668 39.542 30.2586 42.952C24.1524 39.542 21.181 36.388 21.181 33.313C21.1149 32.2044 21.5082 31.1171 22.2699 30.3028C23.0315 29.4886 24.0955 29.018 25.2155 29Z" fill="white"/>
<path d="M11.0948 54H8.06897V51C8.06897 50.4477 7.61739 50 7.06035 50C6.5033 50 6.05173 50.4477 6.05173 51V55C6.05173 55.5523 6.5033 56 7.06035 56H11.0948C11.6519 56 12.1035 55.5523 12.1035 55C12.1035 54.4477 11.6519 54 11.0948 54Z" fill="white"/>
</svg>
