<svg width="61" height="60" viewBox="0 0 61 60" fill="none" xmlns="http://www.w3.org/2000/svg">
<path d="M57.4914 9.99954H41.3535C39.1322 10.0038 37.0414 11.0402 35.7052 12.7995L34.158 14.8445L34.2437 10.5035C36.1416 8.85777 36.8115 6.21773 35.9249 3.87746C35.0383 1.5372 32.7811 -0.0128174 30.2596 -0.0128174C27.7382 -0.0128174 25.4809 1.5372 24.5944 3.87746C23.7078 6.21773 24.3776 8.85777 26.2756 10.5035L26.3613 14.8445L24.8121 12.7995C23.4758 11.0404 21.385 10.0039 19.1638 9.99954H3.02587C2.22735 9.99361 1.46053 10.309 0.900701 10.8735C0.320495 11.4307 -0.00488464 12.1987 2.77653e-06 12.9995C2.77653e-06 14.6564 1.35473 15.9995 3.02587 15.9995H3.19733C2.8698 16.918 3.01249 17.937 3.57999 18.7322C4.1475 19.5275 5.06915 20.0001 6.05173 19.9995H6.22319C5.89567 20.918 6.03835 21.937 6.60585 22.7322C7.17336 23.5275 8.09501 24.0001 9.07759 23.9995H9.31159C9.15814 24.6554 9.07965 25.3263 9.07759 25.9995V27.9995C9.06344 31.9598 11.6766 35.4581 15.5015 36.5995C14.5235 39.6699 15.5025 43.0222 17.9837 45.0995C16.7799 47.4212 16.8839 50.1971 18.2582 52.4238C19.6325 54.6505 22.0782 56.0057 24.7112 55.9995H27.1712L27.1924 57.0585C27.2523 58.6946 28.6074 59.9903 30.2586 59.9903C31.9099 59.9903 33.265 58.6946 33.3248 57.0585L33.346 55.9995H35.806C38.4384 56.0038 40.8831 54.6486 42.258 52.423C43.6329 50.1974 43.7396 47.4225 42.5396 45.0995C44.3447 43.5782 45.3859 41.3484 45.3879 38.9995C45.3856 38.1874 45.2566 37.3806 45.0057 36.6075C48.8242 35.4503 51.4342 31.9583 51.4397 27.9995V25.9995C51.4376 25.3263 51.3591 24.6554 51.2057 23.9995H51.4397C52.4214 23.9976 53.3414 23.5246 53.9085 22.7301C54.4756 21.9356 54.6197 20.9181 54.2951 19.9995H54.4655C55.4472 19.9976 56.3672 19.5246 56.9344 18.7301C57.5015 17.9356 57.6456 16.9181 57.3209 15.9995H57.4914C59.1625 15.9995 60.5172 14.6564 60.5172 12.9995C60.509 11.3461 59.1591 10.0077 57.4914 9.99954ZM33.8987 27.9995H45.3879C45.3879 29.6564 44.0332 30.9995 42.3621 30.9995H33.8392L33.8987 27.9995ZM30.2586 1.99954C32.4868 1.99954 34.2931 3.7904 34.2931 5.99954C34.2931 8.20868 32.4868 9.99954 30.2586 9.99954C28.0304 9.99954 26.2241 8.20868 26.2241 5.99954C26.2241 3.7904 28.0304 1.99954 30.2586 1.99954ZM30.2586 11.9995C30.92 11.9985 31.5767 11.8894 32.2022 11.6765L31.821 30.9995H28.6943L28.313 11.6765C28.9392 11.8896 29.5966 11.9987 30.2586 11.9995ZM23.1983 30.9995H18.1552C16.484 30.9995 15.1293 29.6564 15.1293 27.9995H26.6185L26.678 30.9995H23.1983ZM6.05173 17.9995C5.49468 17.9995 5.04311 17.5518 5.04311 16.9995C5.04271 16.7302 5.15437 16.4726 5.35174 16.2875C5.53571 16.1009 5.78856 15.9969 6.05173 15.9995H16.1379C16.695 15.9995 17.1466 15.5518 17.1466 14.9995C17.1466 14.4473 16.695 13.9995 16.1379 13.9995H3.02587C2.46882 13.9995 2.01724 13.5518 2.01724 12.9995C2.01685 12.7302 2.1285 12.4726 2.32588 12.2875C2.50985 12.1009 2.76269 11.9969 3.02587 11.9995H19.1638C20.7504 12.0025 22.2439 12.7429 23.1983 13.9995L26.4259 18.2665L26.5792 25.9995H15.1293C15.1293 25.4995 15.1293 23.9995 18.1552 23.9995C20.4276 23.9995 22.113 23.3545 23.164 22.0835C24.0853 20.8561 24.4553 19.3062 24.1867 17.7995C24.0909 17.3339 23.6776 16.9994 23.1983 16.9995H18.1552C16.7159 17.0005 15.2979 17.3434 14.0198 17.9995H6.05173ZM9.07759 21.9995C8.52054 21.9995 8.06897 21.5518 8.06897 20.9995C8.06857 20.7302 8.18023 20.4726 8.37761 20.2875C8.56157 20.1009 8.81442 19.9969 9.07759 19.9995H11.4085C10.8621 20.6018 10.4003 21.2746 10.0358 21.9995H9.07759ZM11.0948 27.9995V25.9995C11.0993 22.1354 14.2577 19.004 18.1552 18.9995H22.2461C22.2317 19.6623 22.0033 20.3029 21.5946 20.8275C20.6804 21.7049 19.4203 22.1343 18.1552 21.9995C14.9972 21.9995 13.1121 23.4995 13.1121 25.9995V27.9995C13.1192 30.6592 15.2275 32.8467 17.9071 32.9745C17.3062 33.4941 16.7859 34.0986 16.3629 34.7685C13.272 33.9425 11.1169 31.1733 11.0948 27.9995ZM19.1638 48.4995C19.1644 47.7012 19.3413 46.9128 19.6822 46.1895C20.2975 46.4889 20.949 46.7087 21.6208 46.8435C21.3363 47.3502 21.1851 47.9197 21.181 48.4995C21.1869 50.3085 22.5847 51.8137 24.4026 51.9685C24.147 52.6154 24.1416 53.333 24.3874 53.9835C21.457 53.8137 19.1673 51.4099 19.1638 48.4995ZM35.806 46.9995C36.6416 46.9995 37.319 47.6711 37.319 48.4995C37.319 49.328 36.6416 49.9995 35.806 49.9995H33.466L33.5266 46.9995H35.806ZM31.4488 49.9995H29.0685L29.0079 46.9995H31.5093L31.4488 49.9995ZM26.9907 46.9995L27.0512 49.9995H24.7112C23.8756 49.9995 23.1983 49.328 23.1983 48.4995C23.1983 47.6711 23.8756 46.9995 24.7112 46.9995H26.9907ZM31.3076 57.0205C31.2956 57.2941 31.1737 57.5516 30.9691 57.7355C30.7644 57.9194 30.4941 58.0145 30.2183 57.9995C29.6694 57.9997 29.2212 57.5646 29.2097 57.0205L29.1895 55.9995H31.3278L31.3076 57.0205ZM43.3707 38.9995C43.3663 40.693 42.6419 42.3061 41.3756 43.4425C40.9102 42.9378 40.3774 42.4984 39.7921 42.1365C41.3959 40.9264 41.8267 38.7147 40.7927 36.9995H42.3621C42.5809 36.9995 42.7948 36.9825 43.0096 36.9665C43.2503 37.6177 43.3725 38.306 43.3707 38.9995ZM26.797 36.9995L26.8707 40.9995H23.1983C22.0842 40.9995 21.181 40.1041 21.181 38.9995C21.181 37.895 22.0842 36.9995 23.1983 36.9995H26.797ZM28.8889 40.9995L28.8153 36.9995H31.702L31.6283 40.9995H28.8889ZM33.7202 36.9995H37.319C38.4331 36.9995 39.3362 37.895 39.3362 38.9995C39.3362 40.1041 38.4331 40.9995 37.319 40.9995H33.6466L33.7202 36.9995ZM49.4224 27.9995C49.418 31.8637 46.2596 34.9951 42.3621 34.9995H23.1983C20.9701 34.9995 19.1638 36.7904 19.1638 38.9995C19.1638 41.2087 20.9701 42.9995 23.1983 42.9995H35.806C38.8698 42.9995 41.3535 45.462 41.3535 48.4995C41.3535 51.5371 38.8698 53.9995 35.806 53.9995H27.2328C26.6757 53.9995 26.2241 53.5518 26.2241 52.9995C26.2241 52.4473 26.6757 51.9995 27.2328 51.9995H35.806C37.7557 51.9995 39.3362 50.4325 39.3362 48.4995C39.3362 46.5665 37.7557 44.9995 35.806 44.9995H23.1983C19.856 44.9995 17.1466 42.3133 17.1466 38.9995C17.1466 35.6858 19.856 32.9995 23.1983 32.9995H42.3621C45.1459 32.9962 47.4018 30.7596 47.4052 27.9995V25.9995C47.4052 23.4995 45.5201 21.9995 42.3621 21.9995C41.097 22.1343 39.8369 21.7049 38.9227 20.8275C38.5143 20.3027 38.2857 19.6622 38.2701 18.9995H42.3621C46.2596 19.004 49.418 22.1354 49.4224 25.9995V27.9995ZM51.4397 21.9995H50.4815C50.1169 21.2746 49.6551 20.6018 49.1087 19.9995L51.4397 19.9995C51.7117 19.9989 51.9719 20.1096 52.1588 20.3055C52.3459 20.4886 52.4503 20.7389 52.4483 20.9995C52.4483 21.5518 51.9967 21.9995 51.4397 21.9995ZM57.4914 13.9995H44.3793C43.8223 13.9995 43.3707 14.4473 43.3707 14.9995C43.3707 15.5518 43.8223 15.9995 44.3793 15.9995H54.4655C54.7375 15.9989 54.9978 16.1096 55.1847 16.3055C55.3717 16.4886 55.4761 16.7389 55.4741 16.9995C55.4741 17.5518 55.0226 17.9995 54.4655 17.9995H46.4974C45.2194 17.3434 43.8013 17.0005 42.3621 16.9995H37.319C36.8396 16.9994 36.4264 17.3339 36.3305 17.7995C36.0631 19.305 36.433 20.8531 37.3533 22.0795C38.4042 23.3545 40.0897 23.9995 42.3621 23.9995C45.3879 23.9995 45.3879 25.4995 45.3879 25.9995H33.9381L34.0904 18.2665L37.319 13.9995C38.2734 12.7429 39.7668 12.0025 41.3535 11.9995H57.4914C57.7634 11.9989 58.0236 12.1096 58.2105 12.3055C58.3976 12.4886 58.502 12.7389 58.5 12.9995C58.5 13.5518 58.0484 13.9995 57.4914 13.9995Z" fill="white"/>
</svg>
