<svg width="61" height="60" viewBox="0 0 61 60" fill="none" xmlns="http://www.w3.org/2000/svg">
<path d="M12.9103 35H10.9092C10.4833 33.8057 9.34667 33.0053 8.06897 33H3.02586C1.35472 33 0 34.3432 0 36V57C0 58.6569 1.35472 60 3.02586 60H8.06897C8.92477 59.9974 9.739 59.6337 10.3081 59H35.6043C37.0842 59.0005 38.5356 58.5967 39.7992 57.833L58.7017 46.424C60.3434 45.4338 60.9729 43.3791 60.1642 41.6509C59.3554 39.9227 57.3664 39.0726 55.5437 39.676C34.516 46.627 36.8711 46 35.3411 46C36.5635 42.638 33.5064 39 29.6857 39H24.4086C22.5479 38.9978 20.743 38.3699 19.2889 37.219C17.4768 35.7857 15.2284 35.0035 12.9103 35ZM8.06897 58H3.02586C2.46882 58 2.01724 57.5523 2.01724 57V36C2.01724 35.4477 2.46882 35 3.02586 35H8.06897C8.62601 35 9.07759 35.4477 9.07759 36V57C9.07759 57.5523 8.62601 58 8.06897 58ZM29.6857 41C32.3616 41 34.6844 43.873 33.0848 46H26.9554C24.9638 45.9981 23.0165 46.5829 21.3606 47.68L20.6213 48.168C20.1578 48.4745 20.0327 49.0955 20.3419 49.555C20.651 50.0145 21.2774 50.1385 21.7408 49.832C23.2255 48.6639 25.0602 48.0194 26.9554 48C36.5454 48 36.4637 48.09 37.5156 47.744L56.1862 41.573C57.0337 41.2965 57.9557 41.6929 58.3315 42.4951C58.7072 43.2974 58.4177 44.2515 57.6578 44.715L38.7512 56.125C37.803 56.6973 36.7144 57 35.6043 57H11.0948V37C13.3864 37 15.563 36.825 18.0291 38.781C19.8414 40.2145 22.0902 40.9968 24.4086 41H29.6857Z" fill="white"/>
<path d="M38.3276 38C47.2256 38 54.4655 31.312 54.4655 23.091C54.4655 15.075 39.6559 0.879018 39.0255 0.279018C38.6354 -0.0917853 38.0198 -0.0917853 37.6296 0.279018C36.9992 0.879018 22.1896 15.075 22.1896 23.091C22.1896 31.312 29.4295 38 38.3276 38ZM38.3276 2.40002C42.8422 6.83802 52.4483 17.456 52.4483 23.093C52.4483 30.209 46.1141 36 38.3276 36C30.541 36 24.2069 30.209 24.2069 23.091C24.2069 17.454 33.813 6.83602 38.3276 2.40002Z" fill="white"/>
<path d="M31.2672 26H35.3017V30C35.3017 31.1046 36.2049 32 37.319 32H39.3362C40.4503 32 41.3534 31.1046 41.3534 30V26H45.3879C46.502 26 47.4052 25.1046 47.4052 24V22C47.4052 20.8955 46.502 20 45.3879 20H41.3534V16C41.3534 14.8955 40.4503 14 39.3362 14H37.319C36.2049 14 35.3017 14.8955 35.3017 16V20H31.2672C30.1531 20 29.25 20.8955 29.25 22V24C29.25 25.1046 30.1531 26 31.2672 26ZM31.2672 22H35.3017C36.4158 22 37.319 21.1046 37.319 20V16H39.3362V20C39.3362 21.1046 40.2394 22 41.3534 22H45.3879V24H41.3534C40.2394 24 39.3362 24.8955 39.3362 26V30H37.319V26C37.319 24.8955 36.4158 24 35.3017 24H31.2672V22Z" fill="white"/>
</svg>
