<svg width="61" height="60" viewBox="0 0 61 60" fill="none" xmlns="http://www.w3.org/2000/svg">
<path d="M20.1648 14.0001H21.1736V15.0003C21.1736 16.6569 22.5283 18 24.1992 18C25.8705 18 27.2252 16.6569 27.2252 15.0003V14.0001H28.2335C29.9049 14.0001 31.2596 12.657 31.2596 10.9999C31.2596 9.34331 29.9049 8.00024 28.2335 8.00024H27.2252V7.00004C27.2252 5.3434 25.8705 4.00034 24.1992 4.00034C22.5283 4.00034 21.1736 5.3434 21.1736 7.00004V8.00024H20.1648C18.4939 8.00024 17.1392 9.34331 17.1392 10.9999C17.1392 12.657 18.4939 14.0001 20.1648 14.0001ZM20.1648 10.0002H22.182C22.7392 10.0002 23.1908 9.5525 23.1908 8.99999V7.00004C23.1908 6.44798 23.6423 6.00029 24.1992 6.00029C24.7564 6.00029 25.208 6.44798 25.208 7.00004V8.99999C25.208 9.5525 25.6595 10.0002 26.2164 10.0002H28.2335C28.7908 10.0002 29.2424 10.4479 29.2424 10.9999C29.2424 11.5525 28.7908 12.0001 28.2335 12.0001H26.2164C25.6595 12.0001 25.208 12.4478 25.208 12.9999V15.0003C25.208 15.5524 24.7564 16.0001 24.1992 16.0001C23.6423 16.0001 23.1908 15.5524 23.1908 15.0003V12.9999C23.1908 12.4478 22.7392 12.0001 22.182 12.0001H20.1648C19.608 12.0001 19.1564 11.5525 19.1564 10.9999C19.1564 10.4479 19.608 10.0002 20.1648 10.0002Z" fill="white"/>
<path d="M41.3456 8.00027H34.8646C33.5155 3.26749 29.1593 0 24.1992 0C19.2391 0 14.8829 3.26749 13.5343 8.00027H7.05282C4.2692 8.00347 2.0133 10.2401 2.01007 12.9999V54.9998C2.0133 57.7597 4.2692 59.9963 7.05282 60H41.3456C44.1297 59.9963 46.3856 57.7597 46.3888 54.9998V12.9999C46.3856 10.2401 44.1297 8.00347 41.3456 8.00027ZM24.1992 21.9999C29.1565 21.9917 33.5081 18.7274 34.8646 14.0001H40.3372V53.9996H8.06165V14.0001H13.5343C14.8903 18.7274 19.2419 21.9917 24.1992 21.9999ZM24.1992 2.00041C29.2129 2.00041 33.2768 6.02961 33.2768 11C33.2768 15.9708 29.2129 20 24.1992 20C19.186 20 15.1216 15.9708 15.1216 11C15.1276 6.0319 19.1883 2.0059 24.1992 2.00041ZM44.3716 54.9998C44.3716 56.6565 43.0169 57.9995 41.3456 57.9995H7.05282C5.38191 57.9995 4.02726 56.6565 4.02726 54.9998V12.9999C4.02726 11.3433 5.38191 10.0002 7.05282 10.0002H13.1561C13.1256 10.3303 13.1044 10.6621 13.1044 11C13.1044 11.3383 13.1256 11.6701 13.1561 12.0002H8.06165C6.94755 12.0002 6.04446 12.8956 6.04446 14.0001V53.9996C6.04446 55.1042 6.94755 55.9996 8.06165 55.9996H40.3372C41.4513 55.9996 42.3544 55.1042 42.3544 53.9996V14.0001C42.3544 12.8956 41.4513 12.0002 40.3372 12.0002H35.2427C35.2728 11.6701 35.294 11.3383 35.294 11C35.294 10.6621 35.2728 10.3303 35.2427 10.0002H41.3456C43.0169 10.0002 44.3716 11.3433 44.3716 12.9999V54.9998Z" fill="white"/>
<path d="M12.0961 32.0002C12.6529 32.0002 13.1044 31.5525 13.1044 31C13.1044 30.4479 12.6529 30.0002 12.0961 30.0002V25.9998H17.1393C17.6961 25.9998 18.1477 25.5522 18.1477 25.0001C18.1477 24.4476 17.6961 23.9999 17.1393 23.9999H12.0961C10.982 23.9999 10.0789 24.8953 10.0789 25.9998V30.0002C10.0789 31.1048 10.982 32.0002 12.0961 32.0002Z" fill="white"/>
<path d="M15.8349 28.2932C15.4392 27.9142 14.8099 27.9197 14.4211 28.3051C14.0319 28.691 14.0264 29.3145 14.4087 29.7068L16.4259 31.7072C16.8197 32.0973 17.4583 32.0973 17.8521 31.7072L22.8954 26.7071C23.2777 26.3148 23.2721 25.6909 22.8829 25.3054C22.4937 24.9195 21.8648 24.914 21.4691 25.2931L17.1392 29.586L15.8349 28.2932Z" fill="white"/>
<path d="M36.3028 27.0001H37.3112C37.8685 27.0001 38.32 26.5524 38.32 25.9999C38.32 25.4478 37.8685 25.0001 37.3112 25.0001H36.3028C35.7455 25.0001 35.294 25.4478 35.294 25.9999C35.294 26.5524 35.7455 27.0001 36.3028 27.0001Z" fill="white"/>
<path d="M27.2252 27.0001H32.2685C32.8253 27.0001 33.2768 26.5524 33.2768 25.9999C33.2768 25.4478 32.8253 25.0001 32.2685 25.0001H27.2252C26.6679 25.0001 26.2164 25.4478 26.2164 25.9999C26.2164 26.5524 26.6679 27.0001 27.2252 27.0001Z" fill="white"/>
<path d="M27.2252 31H35.294C35.8513 31 36.3029 30.5523 36.3029 30.0002C36.3029 29.4477 35.8513 29 35.294 29H27.2252C26.6679 29 26.2164 29.4477 26.2164 30.0002C26.2164 30.5523 26.6679 31 27.2252 31Z" fill="white"/>
<path d="M12.0961 42C12.6529 42 13.1044 41.5523 13.1044 40.9998C13.1044 40.4477 12.6529 40 12.0961 40V36.0001H17.1393C17.6961 36.0001 18.1477 35.5524 18.1477 34.9999C18.1477 34.4478 17.6961 34.0001 17.1393 34.0001H12.0961C10.982 34.0001 10.0789 34.8955 10.0789 36.0001V40C10.0789 41.1046 10.982 42 12.0961 42Z" fill="white"/>
<path d="M21.4691 35.2928L17.1392 39.5857L15.8349 38.293C15.4392 37.914 14.8099 37.9195 14.4211 38.3049C14.0319 38.6908 14.0264 39.3147 14.4087 39.707L16.4259 41.707C16.8197 42.0975 17.4583 42.0975 17.8521 41.707L22.8954 36.7069C23.2777 36.3146 23.2721 35.6911 22.8829 35.3052C22.4937 34.9193 21.8648 34.9138 21.4691 35.2928Z" fill="white"/>
<path d="M37.3112 34.9998H36.3028C35.7455 34.9998 35.294 35.4475 35.294 36.0001C35.294 36.5521 35.7455 36.9998 36.3028 36.9998H37.3112C37.8685 36.9998 38.32 36.5521 38.32 36.0001C38.32 35.4475 37.8685 34.9998 37.3112 34.9998Z" fill="white"/>
<path d="M27.2252 36.9998H32.2685C32.8253 36.9998 33.2768 36.5521 33.2768 36.0001C33.2768 35.4475 32.8253 34.9998 32.2685 34.9998H27.2252C26.6679 34.9998 26.2164 35.4475 26.2164 36.0001C26.2164 36.5521 26.6679 36.9998 27.2252 36.9998Z" fill="white"/>
<path d="M27.2252 40.9998H35.294C35.8513 40.9998 36.3029 40.5521 36.3029 40C36.3029 39.4475 35.8513 38.9998 35.294 38.9998H27.2252C26.6679 38.9998 26.2164 39.4475 26.2164 40C26.2164 40.5521 26.6679 40.9998 27.2252 40.9998Z" fill="white"/>
<path d="M12.0961 51.9998C12.6529 51.9998 13.1044 51.5521 13.1044 51C13.1044 50.4475 12.6529 49.9998 12.0961 49.9998V45.9998H17.1393C17.6961 45.9998 18.1477 45.5522 18.1477 45.0001C18.1477 44.4476 17.6961 43.9999 17.1393 43.9999H12.0961C10.982 43.9999 10.0789 44.8953 10.0789 45.9998V49.9998C10.0789 51.1044 10.982 51.9998 12.0961 51.9998Z" fill="white"/>
<path d="M21.4691 45.2931L17.1392 49.586L15.8349 48.2928C15.4392 47.9138 14.8099 47.9192 14.4211 48.3051C14.0319 48.6906 14.0264 49.3145 14.4087 49.7068L16.4259 51.7068C16.8197 52.0973 17.4583 52.0973 17.8521 51.7068L22.8954 46.7071C23.2777 46.3143 23.2721 45.6909 22.8829 45.305C22.4937 44.9195 21.8648 44.914 21.4691 45.2931Z" fill="white"/>
<path d="M37.3112 45H36.3028C35.7455 45 35.294 45.4477 35.294 45.9998C35.294 46.5523 35.7455 47 36.3028 47H37.3112C37.8685 47 38.32 46.5523 38.32 45.9998C38.32 45.4477 37.8685 45 37.3112 45Z" fill="white"/>
<path d="M27.2252 47H32.2685C32.8253 47 33.2768 46.5523 33.2768 45.9998C33.2768 45.4477 32.8253 45 32.2685 45H27.2252C26.6679 45 26.2164 45.4477 26.2164 45.9998C26.2164 46.5523 26.6679 47 27.2252 47Z" fill="white"/>
<path d="M27.2252 51H35.294C35.8513 51 36.3029 50.5523 36.3029 49.9998C36.3029 49.4477 35.8513 49 35.294 49H27.2252C26.6679 49 26.2164 49.4477 26.2164 49.9998C26.2164 50.5523 26.6679 51 27.2252 51Z" fill="white"/>
<path d="M55.8699 12.9999H51.0285C49.4734 13.1199 48.3049 14.457 48.406 16.0001V49C48.406 49.1117 48.4249 49.2225 48.4623 49.3278L51.7473 58.6999C51.9505 59.4639 52.6458 59.9972 53.4423 60C54.2392 60.0027 54.9382 59.4745 55.1464 58.7118L58.4356 49.3268C58.473 49.222 58.4919 49.1112 58.4919 49V16.0001C58.5935 14.457 57.4245 13.1199 55.8699 12.9999ZM55.2817 52.2327C54.0799 51.9223 52.8176 51.9223 51.6153 52.2327L50.8327 49.9997H56.0652L55.2817 52.2327ZM50.4232 25.0001V22H56.4747V25.0001H50.4232ZM54.4575 47.9998V34.9999C54.4575 34.4478 54.006 34.0001 53.4492 34.0001C52.8919 34.0001 52.4404 34.4478 52.4404 34.9999V47.9998H50.4232V27.0001H52.4404V31C52.4404 31.5525 52.8919 32.0002 53.4492 32.0002C54.006 32.0002 54.4575 31.5525 54.4575 31V27.0001H56.4747V47.9998H54.4575ZM51.0285 15.0003H55.8699C56.1562 15.0003 56.4747 15.4284 56.4747 16.0001V20H50.4232V16.0001C50.4232 15.4284 50.7417 15.0003 51.0285 15.0003ZM53.4492 57.4608L52.2792 54.1228C53.0507 53.9594 53.8486 53.9594 54.6201 54.1228L53.4492 57.4608Z" fill="white"/>
</svg>
