<svg width="49" height="60" viewBox="0 0 49 60" fill="none" xmlns="http://www.w3.org/2000/svg">
<path d="M7.112 48C3.21455 48.0045 0.0560701 51.1358 0.0516968 55V57C0.0516968 58.6568 1.40648 60 3.07756 60H45.4396C47.1107 60 48.4655 58.6568 48.4655 57V55C48.461 51.1358 45.3026 48.0043 41.4052 48H21.2327V45H28.293C29.2666 44.9964 30.2055 44.6408 30.9336 44H31.3189C40.2316 44 47.4568 36.8366 47.4568 28.0001C47.4568 19.1636 40.2317 12 31.3189 12H31.2362C29.9736 9.83848 27.7662 8.38477 25.2672 8.06895V5.81602C26.6556 5.33122 27.4888 3.92415 27.2394 2.48579C26.99 1.04743 25.7306 -0.00280686 24.2586 5.63535e-06H8.1207C6.64867 -0.00280686 5.38927 1.04754 5.13987 2.48579C4.89048 3.92415 5.72365 5.3311 7.11212 5.81602V27C7.11744 28.2668 7.92473 29.3938 9.1294 29.816V31C9.1294 32.6568 10.4842 34 12.1553 34H20.2243C21.8953 34 23.2501 32.6568 23.2501 31V29.816C24.4548 29.3938 25.2621 28.2668 25.2674 27V23.931C28.5279 23.5179 31.2109 21.1873 32.0524 18.037C37.4599 18.4318 41.5838 22.9965 41.3865 28.3688C41.1892 33.741 36.7413 37.9962 31.3193 38H30.9339C30.2058 37.3593 29.267 37.0037 28.2934 37.0001H4.08649C1.85835 37.0001 0.0520512 38.7909 0.0520512 41C0.0520512 43.2091 1.85799 45 4.08614 45H11.1464V48H7.112ZM46.4482 55V57C46.4482 57.5523 45.9967 58 45.4396 58H3.07756C2.52049 58 2.06898 57.5522 2.06898 57V55C2.07229 52.24 4.32821 50.0033 7.11212 49.9999H41.4052C44.189 50.0033 46.4449 52.24 46.4482 55ZM8.1207 2.00004H24.2586C24.8157 2.00004 25.2672 2.44782 25.2672 3.00001C25.2672 3.55219 24.8157 3.99997 24.2586 3.99997H8.1207C7.56364 3.99997 7.11212 3.55219 7.11212 3.00001C7.11212 2.44782 7.56364 2.00004 8.1207 2.00004ZM21.2327 31C21.2327 31.5523 20.7811 31.9999 20.2241 31.9999H12.1551C11.5981 31.9999 11.1466 31.5522 11.1466 31V30H21.2327V31ZM22.2413 28H10.1379C9.5808 28 9.12928 27.5522 9.12928 27V6.00001H23.25V8.06895C19.2166 8.56993 16.1903 11.9698 16.1903 16C16.1903 20.0302 19.2166 23.43 23.25 23.931V27C23.25 27.5523 22.7984 28 22.2413 28ZM24.2586 22C20.9163 22 18.2069 19.3137 18.2069 16C18.2069 12.6863 20.9163 9.99997 24.2586 9.99997C27.6009 9.99997 30.3103 12.6863 30.3103 16C30.307 19.3124 27.5995 21.9967 24.2586 22ZM43.4223 28C43.4131 21.7655 38.5935 16.5748 32.3275 16.0509C32.3275 16.034 32.3275 16.017 32.3275 16C32.3249 15.338 32.2388 14.6788 32.0713 14.038C39.5365 14.4282 45.3974 20.526 45.4312 27.9375C45.465 35.349 39.6598 41.499 32.1984 41.9561C32.3796 41.3002 32.3701 40.6069 32.1712 39.956C38.5024 39.51 43.4119 34.2929 43.4223 28ZM2.06898 41C2.06898 39.8954 2.97213 39 4.08626 39H28.2932C29.4073 39 30.3104 39.8954 30.3104 41C30.3104 42.1047 29.4073 43.0001 28.2932 43.0001H4.08626C2.97213 43 2.06898 42.1045 2.06898 41ZM13.1637 45H19.2154V48H13.1637V45Z" fill="white"/>
<path d="M24.2586 12.9999C22.5875 12.9999 21.2327 14.3431 21.2327 15.9999C21.2327 17.6567 22.5875 18.9999 24.2586 18.9999C25.9297 18.9999 27.2844 17.6567 27.2844 15.9999C27.2844 14.3431 25.9298 12.9999 24.2586 12.9999ZM24.2586 17C23.7015 17 23.25 16.5522 23.25 16.0001C23.25 15.4479 23.7015 15 24.2586 15C24.8157 15 25.2672 15.4478 25.2672 15.9999C25.2672 16.5521 24.8157 17 24.2586 17Z" fill="white"/>
</svg>
