<svg width="14" height="14" viewBox="0 0 14 14" fill="none" xmlns="http://www.w3.org/2000/svg">
<path fill-rule="evenodd" clip-rule="evenodd" d="M3.3472 6.24304C4.3472 8.20831 5.95831 9.81248 7.92359 10.8194L9.45137 9.29165C9.63887 9.10415 9.91665 9.04165 10.1597 9.12498C10.9375 9.38192 11.7778 9.52081 12.6389 9.52081C13.0208 9.52081 13.3333 9.83331 13.3333 10.2153V12.6389C13.3333 13.0208 13.0208 13.3333 12.6389 13.3333C6.11804 13.3333 0.833313 8.04859 0.833313 1.52776C0.833313 1.14581 1.14581 0.833313 1.52776 0.833313H3.95831C4.34026 0.833313 4.65276 1.14581 4.65276 1.52776C4.65276 2.39581 4.79165 3.22915 5.04859 4.00692C5.12498 4.24998 5.06942 4.52081 4.87498 4.71526L3.3472 6.24304Z" fill="white"/>
</svg>
