<svg width="24" height="24" viewBox="0 0 24 24" fill="none" xmlns="http://www.w3.org/2000/svg">
<path fill-rule="evenodd" clip-rule="evenodd" d="M9.20005 3.59999C6.10725 3.59999 3.60005 6.10719 3.60005 9.19999C3.60005 12.2927 6.10725 14.8 9.20005 14.8C12.2928 14.8 14.8 12.2927 14.8 9.19999C14.8 6.10719 12.2928 3.59999 9.20005 3.59999ZM0.800049 9.19999C0.800049 4.56079 4.56086 0.799988 9.20005 0.799988C13.8392 0.799988 17.6 4.56079 17.6 9.19999C17.6 11.0142 17.0249 12.694 16.047 14.0671L22.79 20.81C23.3367 21.3567 23.3367 22.2432 22.79 22.7899C22.2433 23.3366 21.3568 23.3366 20.8101 22.7899L14.0671 16.047C12.694 17.0249 11.0142 17.6 9.20005 17.6C4.56086 17.6 0.800049 13.8392 0.800049 9.19999Z" fill="#005064"/>
</svg>
