<svg width="60" height="60" viewBox="0 0 60 60" fill="none" xmlns="http://www.w3.org/2000/svg">
<g clip-path="url(#clip0)">
<path d="M57.9992 11H41.9993V10.0001C41.9976 9.21608 41.5377 8.50533 40.8232 8.1826C41.5778 7.29338 41.9943 6.16639 41.9993 5.00015C41.9993 2.23863 39.7607 0 36.9993 0C34.2379 0 31.9993 2.23863 31.9993 5.00003C32.0043 6.16628 32.4208 7.29327 33.1753 8.18248C32.4609 8.50533 32.001 9.21596 31.9993 9.99994V10.9999H15.9993C14.8953 11.0012 14.0006 11.8958 13.9993 12.9999V23.0817C11.9917 23.1737 10.0914 24.0137 8.67219 25.4364C7.53957 26.7046 6.94027 28.3612 6.99934 30.0604L7.00227 32.1727L6.58133 32.5936C6.21008 32.9677 6.00102 33.4729 5.99926 33.9999V37.1795C6.00043 37.7071 6.20996 38.2129 6.58227 38.5867L6.99922 38.9998C6.99934 39.0815 7.0093 39.1628 7.02899 39.242C7.07141 39.412 8.06117 43.3084 9.88929 45.242V46.6503C9.89574 47.1814 9.60816 47.6725 9.14176 47.9267L3.26575 51.205C1.2363 52.3429 -0.0147912 54.4935 -0.000845926 56.8202V58.9999C-0.000728739 59.2652 0.104623 59.5195 0.292239 59.7072C0.479739 59.8947 0.734153 60 0.999465 60H49.9993C50.2645 60.0001 50.5189 59.8948 50.7066 59.7072C50.8941 59.5197 50.9994 59.2652 50.9994 58.9999V56.9999C50.9977 55.3438 49.6555 54.0017 47.9994 53.9999H41.9994V49.9999H57.9994C59.1034 49.9987 59.9981 49.104 59.9994 47.9999V13.0001C59.998 11.896 59.1034 11.0013 57.9992 11ZM36.9993 2.00004C38.6561 2.00004 39.9993 3.34324 39.9993 5.00003C39.9993 6.65682 38.6561 8.00002 36.9993 8.00002C35.3425 8.00002 33.9993 6.65694 33.9993 5.00003C34.0012 3.34394 35.3432 2.00191 36.9993 2.00004ZM33.9993 10.0001H39.9993L39.9997 11.9976L39.9993 12.0001L39.9997 12.0026L40.0008 15.9928L39.9993 16H33.9993V10.0001ZM15.9993 13.0001H31.9993V15H15.9993V13.0001ZM23.9993 58H1.99919L1.99931 56.8202C1.98571 55.2201 2.84259 53.7389 4.23665 52.9531L10.1034 49.6806C11.2114 49.0765 11.8976 47.9123 11.8896 46.6504V45.0996C11.9051 44.6773 11.7434 44.2677 11.4438 43.9697C10.2182 42.7871 9.28508 39.9639 8.99363 38.8516C8.95672 38.3767 8.75222 37.9306 8.41648 37.5927L7.99953 37.1797L7.9966 34.0068L8.41555 33.5879C8.78832 33.2139 8.99832 32.7077 8.99949 32.1796L8.99609 29.9794C8.96574 28.7995 9.3834 27.6519 10.165 26.7676C11.2538 25.5948 13.0488 25 15.4994 25C17.95 25 19.745 25.5948 20.8339 26.7676C21.6311 27.6747 22.0484 28.8539 21.9994 30.0605V32.1796C22.0006 32.7072 22.2101 33.213 22.5824 33.5868L22.9994 33.9999L23.0023 37.1727L22.5814 37.5937C22.2139 37.9622 22.0052 38.4599 21.9999 38.9804C21.9988 38.9979 21.8998 40.8017 19.4462 44.0936C19.2281 44.3836 19.1098 44.7366 19.1092 45.0994V46.7195C19.0997 48.0001 19.8037 49.1796 20.9354 49.779L26.6223 53.0095C28.0934 53.7708 29.012 55.2938 28.9994 56.95L28.9995 57.9997H23.9993V58ZM27.5736 51.2509L25.3713 49.9999H31.9993V53.9999H30.2825C29.6921 52.8209 28.7439 51.8587 27.5736 51.2509ZM47.9993 55.9999C48.5514 56.0005 48.9988 56.4478 48.9993 56.9999V57.9999H30.9993V56.9501C30.9984 56.632 30.9743 56.3145 30.9276 55.9999H47.9993ZM33.9993 54V50.0001H39.9993V54H33.9993ZM57.9992 48H40.9994H21.8583C21.3936 47.7421 21.1065 47.2513 21.1092 46.7198V46H57.9992V48ZM41.385 38.8779C41.2057 38.352 40.7112 37.9988 40.1555 38H37.2648C37.2311 38 37.1867 38.0029 37.1535 38.0058C36.9772 38.0189 36.8002 38.0041 36.6286 37.9619C37.0928 37.164 37.4884 36.3279 37.8109 35.463C37.8426 35.4008 37.8675 35.3354 37.8851 35.2677C38.4516 33.7656 38.8155 32.1947 38.967 30.5967C39.084 28.647 40.6491 27.0976 42.5998 26.9999H42.6277C44.4274 26.9289 45.9941 28.2193 46.2694 29.9992L46.2693 29.9999C46.2755 30.0693 46.2893 30.1379 46.3105 30.2043C46.3351 30.3415 46.3527 30.4801 46.363 30.6192C46.5102 33.2131 47.3065 35.7285 48.679 37.9346C48.4037 38.0052 48.1185 38.0294 47.8352 38.0058C47.7991 38.002 47.7627 38 47.7264 38H45.1643C44.6943 37.9975 44.2574 38.2418 44.0134 38.6436C43.7702 39.0367 43.7511 39.5287 43.9631 39.9394C44.1795 40.3926 44.5404 40.7609 44.989 40.9863L48.9495 42.6532C49.4904 42.9081 49.8732 43.4107 49.9753 44H36.0135C36.0976 43.3994 36.4696 42.8777 37.0101 42.6025L40.3592 40.7148C40.5651 40.5934 40.7625 40.458 40.95 40.3096C41.3869 39.9749 41.5619 39.3991 41.385 38.8779ZM48.0677 29C47.4028 26.5722 45.1592 24.9178 42.6433 25H42.6022C40.1602 25.0628 38.0276 26.6698 37.2941 29H35.093C35.8349 25.5018 38.9233 22.9999 42.4992 22.9999C46.0752 22.9999 49.1636 25.5019 49.9055 29H48.0677ZM49.9993 31V34H49.0316C48.6928 33.0313 48.4804 32.0231 48.3994 31H49.9993ZM36.9048 31C36.7771 32.0191 36.5527 33.0236 36.2345 34H34.9994V31H36.9048ZM57.9992 44H51.9785C51.8686 42.6241 51.0268 41.4137 49.7752 40.8319L47.8107 40.0087C48.9479 40.125 50.0686 39.6691 50.8015 38.7919C51.0886 38.3726 51.0639 37.8141 50.7409 37.4218C50.4127 36.9746 50.1254 36.4987 49.8826 35.9999H49.9992C51.1032 35.9986 51.998 35.104 51.9993 33.9999V29.9999C51.9993 25.206 47.5598 21 42.4992 21C37.4386 21 32.9992 25.206 32.9992 29.9999V33.9999C33.0005 35.1039 33.8951 35.9986 34.9992 35.9999H35.4205C35.1653 36.5173 34.8762 37.0175 34.5553 37.497C34.2971 37.8776 34.2867 38.3745 34.529 38.7655C35.1621 39.6572 36.2324 40.1309 37.318 39.9999H37.5553L36.0504 40.8475C34.8673 41.47 34.0953 42.6653 34.0146 43.9998H21.9479C23.93 40.9539 23.9989 39.2114 23.9963 39.0067L24.4152 38.5878C24.788 38.2138 24.998 37.7077 24.9992 37.1795V33.9999C24.9973 33.4724 24.7879 32.9669 24.4162 32.5927L23.9992 32.1796L23.9954 30.1474C24.0746 28.4196 23.4756 26.7291 22.3264 25.4364C20.9285 23.9105 18.7958 23.1044 15.9992 23.0172V16.9999H32.2775C32.632 17.6165 33.288 17.9975 33.9992 17.9998H39.9992C40.7104 17.9975 41.3665 17.6164 41.7209 16.9999H57.9991V44H57.9992ZM57.9992 15H41.9993V12.9999H57.9992V15Z" fill="white"/>
<path d="M36.2901 5.71009C36.3872 5.79833 36.4987 5.86935 36.6197 5.92009C36.9274 6.05192 37.2807 6.01946 37.5591 5.83396C37.8375 5.64833 38.0035 5.33474 38.0002 5.00017C38.0036 4.86904 37.9762 4.73896 37.9202 4.62025C37.8694 4.49908 37.7984 4.38751 37.7103 4.29013C37.3094 3.92005 36.6913 3.92005 36.2903 4.29013C36.2018 4.38728 36.1306 4.49896 36.0799 4.62025C35.9737 4.86236 35.9737 5.13786 36.0799 5.37997C36.1306 5.50103 36.2017 5.61271 36.2901 5.71009Z" fill="white"/>
</g>
<defs>
<clipPath id="clip0">
<rect width="60" height="60" fill="white"/>
</clipPath>
</defs>
</svg>
