<svg width="50" height="50" viewBox="0 0 50 50" fill="none" xmlns="http://www.w3.org/2000/svg">
<path d="M4.20248 49.9943C2.81694 50.1063 1.52713 49.2795 1.05056 47.9736C-0.441107 44.157 6.32731 37.1801 10.4948 33.3606C10.8341 33.0495 11.3613 33.0725 11.6724 33.4118C11.9834 33.7512 11.9604 34.2784 11.6211 34.5894C5.35398 40.3333 1.81398 45.3475 2.60173 47.3636C3.10298 48.6267 4.47423 48.4989 6.67231 47.8507C7.47798 47.6167 8.27389 47.3625 9.07064 47.1081C10.7371 46.543 12.4335 46.0701 14.152 45.6915C17.2576 45.0933 20.4224 44.8585 23.5823 44.9916L24.8031 45C24.8357 45 24.8683 45.002 24.9007 45.0061C24.9671 44.998 25.0343 44.998 25.1007 45.0061C25.1326 45.002 25.1647 45 25.1969 45L26.4176 44.9916C29.5779 44.8584 32.7429 45.0933 35.8488 45.6916C37.5671 46.0702 39.2631 46.5431 40.9293 47.1083C41.7261 47.3626 42.522 47.6166 43.3244 47.85C45.5273 48.5006 46.8986 48.6272 47.3999 47.3605C48.186 45.348 44.646 40.3337 38.3789 34.5899C38.0396 34.2789 38.0166 33.7517 38.3276 33.4123C38.6386 33.073 39.1658 33.05 39.5051 33.361C43.6726 37.1806 50.4411 44.1574 48.951 47.9705C47.7881 50.9026 44.4588 49.9223 42.8556 49.4496C42.0434 49.2136 41.2329 48.9551 40.4223 48.6964C38.8141 48.1506 37.1773 47.6931 35.5191 47.3259C32.526 46.7479 29.4753 46.5241 26.4298 46.6592L25.2449 46.6666C25.0817 46.6715 24.9183 46.6715 24.7551 46.6666L23.5701 46.6583C20.525 46.5237 17.4745 46.7474 14.4816 47.325C12.8232 47.6924 11.1861 48.1501 9.57764 48.6959C8.76706 48.9546 7.95656 49.2131 7.14106 49.4502C6.19185 49.7684 5.20265 49.9515 4.20248 49.9943Z" fill="white"/>
<path d="M25 40.8333C15.6851 40.833 7.6037 34.4024 5.51114 25.3256C3.41859 16.2489 7.86896 6.92922 16.2435 2.85075C16.5121 2.71262 16.8345 2.7307 17.086 2.898C17.3376 3.0653 17.4789 3.35562 17.4553 3.65679C17.4318 3.95796 17.2471 4.22281 16.9726 4.349C8.82693 8.31555 4.8 17.6373 7.49552 26.2872C10.191 34.9371 18.8006 40.321 27.7577 38.9579C36.7147 37.5948 43.3329 29.8935 43.3333 20.8333C43.3642 13.8109 39.354 7.39666 33.0273 4.349C32.7528 4.22281 32.5682 3.95796 32.5446 3.65679C32.5211 3.35562 32.6624 3.0653 32.9139 2.898C33.1654 2.7307 33.4878 2.71262 33.7565 2.85075C42.131 6.92922 46.5814 16.2489 44.4888 25.3256C42.3963 34.4024 34.3148 40.833 25 40.8333Z" fill="white"/>
<path d="M18.2951 7.24239C18.0768 7.24272 17.8605 7.20058 17.6583 7.1183C17.2416 6.94971 16.9124 6.61741 16.7476 6.19914L15.8203 3.87164C15.4804 3.04021 15.8658 2.08943 16.6886 1.7293C21.9896 -0.576475 28.0103 -0.576475 33.3113 1.7293C34.1338 2.08944 34.5194 3.0395 34.1805 3.87097L33.2527 6.19914C33.088 6.61741 32.7588 6.94971 32.3421 7.1183C31.9137 7.29189 31.4331 7.28395 31.0107 7.0963C27.1789 5.41989 22.821 5.41989 18.9892 7.0963C18.7705 7.19268 18.5341 7.24243 18.2951 7.24239ZM25 1.66664C22.3688 1.66195 19.7654 2.20342 17.3543 3.2568L18.2951 5.5818C22.5587 3.6979 27.4181 3.69421 31.6845 5.57164L31.7057 5.57997L32.6318 3.25497C30.2256 2.20181 27.6266 1.6609 25 1.66664Z" fill="white"/>
<path d="M25 32.4999C18.5567 32.4999 13.3333 27.2766 13.3333 20.8333C13.3333 14.39 18.5567 9.16661 25 9.16661C31.4433 9.16661 36.6666 14.39 36.6666 20.8333C36.6594 27.2736 31.4403 32.4927 25 32.4999ZM25 10.8333C19.4771 10.8333 15 15.3104 15 20.8333C15 26.3561 19.4771 30.8333 25 30.8333C30.5228 30.8333 35 26.3561 35 20.8333C34.9938 15.313 30.5203 10.8394 25 10.8333Z" fill="white"/>
<path d="M25 28.3333C20.8578 28.3333 17.5 24.9754 17.5 20.8333C17.5 16.6912 20.8578 13.3333 25 13.3333C29.1421 13.3333 32.5 16.6912 32.5 20.8333C32.4954 24.9735 29.1402 28.3287 25 28.3333ZM25 15C21.7783 15 19.1666 17.6117 19.1666 20.8333C19.1666 24.055 21.7783 26.6666 25 26.6666C28.2216 26.6666 30.8333 24.055 30.8333 20.8333C30.8296 17.6132 28.2201 15.0037 25 15Z" fill="white"/>
<path d="M27.0833 22.5C25.0122 22.5 23.3333 20.821 23.3333 18.75C23.3333 16.6789 25.0122 15 27.0833 15C29.1544 15 30.8333 16.6789 30.8333 18.75C30.831 20.8201 29.1534 22.4977 27.0833 22.5ZM27.0833 16.6666C25.9327 16.6666 25 17.5994 25 18.75C25 19.9005 25.9327 20.8333 27.0833 20.8333C28.2339 20.8333 29.1667 19.9005 29.1667 18.75C29.1655 17.5999 28.2334 16.6678 27.0833 16.6666Z" fill="white"/>
<path d="M6.29067 25.8C5.84716 25.7998 5.48146 25.4523 5.4587 25.0094C5.43594 24.5665 5.76409 24.1833 6.20525 24.1377C7.89341 23.9505 9.1698 22.5222 9.16687 20.8237C9.16394 19.1252 7.88263 17.7013 6.19384 17.5199C5.97413 17.4963 5.77282 17.3864 5.63422 17.2143C5.49562 17.0422 5.43112 16.8221 5.45492 16.6024C5.47586 16.3814 5.58515 16.1783 5.75799 16.0391C5.93083 15.8999 6.15258 15.8364 6.37292 15.863C8.90901 16.1362 10.8319 18.2763 10.8331 20.827C10.8344 23.3778 8.91358 25.5198 6.37775 25.7955C6.34883 25.7986 6.31976 25.8001 6.29067 25.8Z" fill="white"/>
<path d="M43.7093 25.8C43.6802 25.8001 43.6512 25.7986 43.6222 25.7955C41.0864 25.5198 39.1656 23.3778 39.1669 20.8271C39.1681 18.2763 41.091 16.1362 43.6271 15.863C44.0816 15.8189 44.487 16.1488 44.536 16.6029C44.5851 17.0569 44.2596 17.4658 43.8062 17.5199C42.1174 17.7013 40.836 19.1252 40.8331 20.8237C40.8302 22.5222 42.1066 23.9505 43.7947 24.1377C44.2359 24.1833 44.564 24.5665 44.5413 25.0094C44.5185 25.4523 44.1528 25.7998 43.7093 25.8Z" fill="white"/>
</svg>
