<svg width="95" height="96" viewBox="0 0 95 96" fill="none" xmlns="http://www.w3.org/2000/svg">
<path d="M2.60587 5.29422C4.04182 5.29422 5.20587 4.16394 5.20587 2.76967C5.20587 1.3754 4.04182 0.245117 2.60587 0.245117C1.16993 0.245117 0.00585938 1.3754 0.00585938 2.76967C0.00585938 4.16394 1.16993 5.29422 2.60587 5.29422Z" fill="#005064"/>
<path d="M2.60583 18.208C4.00582 18.208 5.20581 19.3732 5.20581 20.7326C5.20581 22.0919 4.00582 23.2571 2.60583 23.2571C1.20583 23.2571 0.00582739 22.0919 0.00582739 20.7326C-0.0941724 19.3732 1.10583 18.208 2.60583 18.208Z" fill="#005064"/>
<path d="M2.60587 41.3177C4.04182 41.3177 5.20587 40.1874 5.20587 38.7931C5.20587 37.3988 4.04182 36.2686 2.60587 36.2686C1.16993 36.2686 0.00585938 37.3988 0.00585938 38.7931C0.00585938 40.1874 1.16993 41.3177 2.60587 41.3177Z" fill="#005064"/>
<path d="M2.60583 54.2319C4.00582 54.2319 5.20581 55.3971 5.20581 56.7565C5.20581 58.1159 4.00582 59.2811 2.60583 59.2811C1.20583 59.2811 0.00582739 58.1159 0.00582739 56.7565C-0.0941724 55.3971 1.10583 54.2319 2.60583 54.2319Z" fill="#005064"/>
<path d="M2.60587 77.3412C4.04182 77.3412 5.20587 76.2109 5.20587 74.8166C5.20587 73.4223 4.04182 72.292 2.60587 72.292C1.16993 72.292 0.00585938 73.4223 0.00585938 74.8166C0.00585938 76.2109 1.16993 77.3412 2.60587 77.3412Z" fill="#005064"/>
<path d="M2.60587 95.304C4.04182 95.304 5.20587 94.1738 5.20587 92.7795C5.20587 91.3852 4.04182 90.2549 2.60587 90.2549C1.16993 90.2549 0.00585938 91.3852 0.00585938 92.7795C0.00585938 94.1738 1.16993 95.304 2.60587 95.304Z" fill="#005064"/>
<path d="M20.5057 5.29422C21.9417 5.29422 23.1057 4.16394 23.1057 2.76967C23.1057 1.3754 21.9417 0.245117 20.5057 0.245117C19.0698 0.245117 17.9058 1.3754 17.9058 2.76967C17.9058 4.16394 19.0698 5.29422 20.5057 5.29422Z" fill="#005064"/>
<path d="M20.5057 18.208C21.9057 18.208 23.1057 19.3732 23.1057 20.7326C23.1057 22.0919 21.9057 23.2571 20.5057 23.2571C19.1057 23.2571 17.9058 22.0919 17.9058 20.7326C17.9058 19.3732 19.0057 18.208 20.5057 18.208Z" fill="#005064"/>
<path d="M20.5057 41.3177C21.9417 41.3177 23.1057 40.1874 23.1057 38.7931C23.1057 37.3988 21.9417 36.2686 20.5057 36.2686C19.0698 36.2686 17.9058 37.3988 17.9058 38.7931C17.9058 40.1874 19.0698 41.3177 20.5057 41.3177Z" fill="#005064"/>
<path d="M20.5057 54.2319C21.9057 54.2319 23.1057 55.3971 23.1057 56.7565C23.1057 58.1159 21.9057 59.2811 20.5057 59.2811C19.1057 59.2811 17.9058 58.1159 17.9058 56.7565C17.9058 55.3971 19.0057 54.2319 20.5057 54.2319Z" fill="#005064"/>
<path d="M20.5057 77.3412C21.9417 77.3412 23.1057 76.2109 23.1057 74.8166C23.1057 73.4223 21.9417 72.292 20.5057 72.292C19.0698 72.292 17.9058 73.4223 17.9058 74.8166C17.9058 76.2109 19.0698 77.3412 20.5057 77.3412Z" fill="#005064"/>
<path d="M20.5057 95.304C21.9417 95.304 23.1057 94.1738 23.1057 92.7795C23.1057 91.3852 21.9417 90.2549 20.5057 90.2549C19.0698 90.2549 17.9058 91.3852 17.9058 92.7795C17.9058 94.1738 19.0698 95.304 20.5057 95.304Z" fill="#005064"/>
<path d="M38.4059 5.29422C39.8418 5.29422 41.0059 4.16394 41.0059 2.76967C41.0059 1.3754 39.8418 0.245117 38.4059 0.245117C36.97 0.245117 35.8059 1.3754 35.8059 2.76967C35.8059 4.16394 36.97 5.29422 38.4059 5.29422Z" fill="#005064"/>
<path d="M38.4059 18.208C39.8059 18.208 41.0059 19.3732 41.0059 20.7326C41.0059 22.0919 39.8059 23.2571 38.4059 23.2571C37.0059 23.2571 35.8059 22.0919 35.8059 20.7326C35.8059 19.3732 36.9059 18.208 38.4059 18.208Z" fill="#005064"/>
<path d="M38.4059 41.3177C39.8418 41.3177 41.0059 40.1874 41.0059 38.7931C41.0059 37.3988 39.8418 36.2686 38.4059 36.2686C36.97 36.2686 35.8059 37.3988 35.8059 38.7931C35.8059 40.1874 36.97 41.3177 38.4059 41.3177Z" fill="#005064"/>
<path d="M38.4059 54.2319C39.8059 54.2319 41.0059 55.3971 41.0059 56.7565C41.0059 58.1159 39.8059 59.2811 38.4059 59.2811C37.0059 59.2811 35.8059 58.1159 35.8059 56.7565C35.8059 55.3971 36.9059 54.2319 38.4059 54.2319Z" fill="#005064"/>
<path d="M38.4059 77.3412C39.8418 77.3412 41.0059 76.2109 41.0059 74.8166C41.0059 73.4223 39.8418 72.292 38.4059 72.292C36.97 72.292 35.8059 73.4223 35.8059 74.8166C35.8059 76.2109 36.97 77.3412 38.4059 77.3412Z" fill="#005064"/>
<path d="M38.4059 95.304C39.8418 95.304 41.0059 94.1738 41.0059 92.7795C41.0059 91.3852 39.8418 90.2549 38.4059 90.2549C36.97 90.2549 35.8059 91.3852 35.8059 92.7795C35.8059 94.1738 36.97 95.304 38.4059 95.304Z" fill="#005064"/>
<path d="M56.3058 5.29422C57.7417 5.29422 58.9058 4.16394 58.9058 2.76967C58.9058 1.3754 57.7417 0.245117 56.3058 0.245117C54.8699 0.245117 53.7058 1.3754 53.7058 2.76967C53.7058 4.16394 54.8699 5.29422 56.3058 5.29422Z" fill="#005064"/>
<path d="M56.3058 18.208C57.7058 18.208 58.9058 19.3732 58.9058 20.7326C58.9058 22.0919 57.7058 23.2571 56.3058 23.2571C54.9058 23.2571 53.7058 22.0919 53.7058 20.7326C53.7058 19.3732 54.8058 18.208 56.3058 18.208Z" fill="#005064"/>
<path d="M56.3058 41.3177C57.7417 41.3177 58.9058 40.1874 58.9058 38.7931C58.9058 37.3988 57.7417 36.2686 56.3058 36.2686C54.8699 36.2686 53.7058 37.3988 53.7058 38.7931C53.7058 40.1874 54.8699 41.3177 56.3058 41.3177Z" fill="#005064"/>
<path d="M56.3058 54.2319C57.7058 54.2319 58.9058 55.3971 58.9058 56.7565C58.9058 58.1159 57.7058 59.2811 56.3058 59.2811C54.9058 59.2811 53.7058 58.1159 53.7058 56.7565C53.7058 55.3971 54.8058 54.2319 56.3058 54.2319Z" fill="#005064"/>
<path d="M56.3058 77.3412C57.7417 77.3412 58.9058 76.2109 58.9058 74.8166C58.9058 73.4223 57.7417 72.292 56.3058 72.292C54.8699 72.292 53.7058 73.4223 53.7058 74.8166C53.7058 76.2109 54.8699 77.3412 56.3058 77.3412Z" fill="#005064"/>
<path d="M56.3058 95.304C57.7417 95.304 58.9058 94.1738 58.9058 92.7795C58.9058 91.3852 57.7417 90.2549 56.3058 90.2549C54.8699 90.2549 53.7058 91.3852 53.7058 92.7795C53.7058 94.1738 54.8699 95.304 56.3058 95.304Z" fill="#005064"/>
<path d="M74.2057 5.29422C75.6416 5.29422 76.8057 4.16394 76.8057 2.76967C76.8057 1.3754 75.6416 0.245117 74.2057 0.245117C72.7698 0.245117 71.6057 1.3754 71.6057 2.76967C71.6057 4.16394 72.7698 5.29422 74.2057 5.29422Z" fill="#005064"/>
<path d="M74.2057 18.208C75.6057 18.208 76.8057 19.3732 76.8057 20.7326C76.8057 22.0919 75.6057 23.2571 74.2057 23.2571C72.8057 23.2571 71.6057 22.0919 71.6057 20.7326C71.6057 19.3732 72.7057 18.208 74.2057 18.208Z" fill="#005064"/>
<path d="M74.2057 41.3177C75.6416 41.3177 76.8057 40.1874 76.8057 38.7931C76.8057 37.3988 75.6416 36.2686 74.2057 36.2686C72.7698 36.2686 71.6057 37.3988 71.6057 38.7931C71.6057 40.1874 72.7698 41.3177 74.2057 41.3177Z" fill="#005064"/>
<path d="M74.2057 54.2319C75.6057 54.2319 76.8057 55.3971 76.8057 56.7565C76.8057 58.1159 75.6057 59.2811 74.2057 59.2811C72.8057 59.2811 71.6057 58.1159 71.6057 56.7565C71.6057 55.3971 72.7057 54.2319 74.2057 54.2319Z" fill="#005064"/>
<path d="M74.2057 77.3412C75.6416 77.3412 76.8057 76.2109 76.8057 74.8166C76.8057 73.4223 75.6416 72.292 74.2057 72.292C72.7698 72.292 71.6057 73.4223 71.6057 74.8166C71.6057 76.2109 72.7698 77.3412 74.2057 77.3412Z" fill="#005064"/>
<path d="M74.2057 95.304C75.6416 95.304 76.8057 94.1738 76.8057 92.7795C76.8057 91.3852 75.6416 90.2549 74.2057 90.2549C72.7698 90.2549 71.6057 91.3852 71.6057 92.7795C71.6057 94.1738 72.7698 95.304 74.2057 95.304Z" fill="#005064"/>
<path d="M92.1058 5.29422C93.5418 5.29422 94.7058 4.16394 94.7058 2.76967C94.7058 1.3754 93.5418 0.245117 92.1058 0.245117C90.6699 0.245117 89.5059 1.3754 89.5059 2.76967C89.5059 4.16394 90.6699 5.29422 92.1058 5.29422Z" fill="#005064"/>
<path d="M92.1058 18.208C93.5058 18.208 94.7058 19.3732 94.7058 20.7326C94.7058 22.0919 93.5058 23.2571 92.1058 23.2571C90.7058 23.2571 89.5059 22.0919 89.5059 20.7326C89.5059 19.3732 90.6058 18.208 92.1058 18.208Z" fill="#005064"/>
<path d="M92.1058 41.3177C93.5418 41.3177 94.7058 40.1874 94.7058 38.7931C94.7058 37.3988 93.5418 36.2686 92.1058 36.2686C90.6699 36.2686 89.5059 37.3988 89.5059 38.7931C89.5059 40.1874 90.6699 41.3177 92.1058 41.3177Z" fill="#005064"/>
<path d="M92.1058 54.2319C93.5058 54.2319 94.7058 55.3971 94.7058 56.7565C94.7058 58.1159 93.5058 59.2811 92.1058 59.2811C90.7058 59.2811 89.5059 58.1159 89.5059 56.7565C89.5059 55.3971 90.6058 54.2319 92.1058 54.2319Z" fill="#005064"/>
<path d="M92.1058 77.3412C93.5418 77.3412 94.7058 76.2109 94.7058 74.8166C94.7058 73.4223 93.5418 72.292 92.1058 72.292C90.6699 72.292 89.5059 73.4223 89.5059 74.8166C89.5059 76.2109 90.6699 77.3412 92.1058 77.3412Z" fill="#005064"/>
<path d="M92.1058 95.304C93.5418 95.304 94.7058 94.1738 94.7058 92.7795C94.7058 91.3852 93.5418 90.2549 92.1058 90.2549C90.6699 90.2549 89.5059 91.3852 89.5059 92.7795C89.5059 94.1738 90.6699 95.304 92.1058 95.304Z" fill="#005064"/>
</svg>
